<svg width="17" height="17" viewBox="0 0 17 17" fill="none" xmlns="http://www.w3.org/2000/svg">
<g clip-path="url(#clip0_5457_1375)">
<path d="M8.49955 1.71085e-06C6.51766 -0.00125518 4.59764 0.69007 3.07146 1.95444C1.54527 3.21882 0.508885 4.97675 0.141485 6.92428C-0.225914 8.87181 0.0987737 10.8865 1.05941 12.62C2.02004 14.3535 3.55623 15.6969 5.40236 16.4178C5.32798 15.7452 5.25998 14.7114 5.43105 13.9772C5.58617 13.3131 6.42767 9.75163 6.42767 9.75163C6.42767 9.75163 6.17373 9.24269 6.17373 8.49044C6.17373 7.30788 6.85905 6.426 7.71223 6.426C8.43686 6.426 8.78748 6.97 8.78748 7.62344C8.78748 8.35231 8.32317 9.44244 8.08305 10.4529C7.8833 11.2986 8.50805 11.9893 9.34211 11.9893C10.853 11.9893 12.0143 10.3955 12.0143 8.09625C12.0143 6.06156 10.5512 4.63888 8.46342 4.63888C6.04517 4.63888 4.62567 6.45256 4.62567 8.32681C4.62567 9.05781 4.90723 9.84088 5.25786 10.2669C5.28805 10.2991 5.30941 10.3385 5.31983 10.3813C5.33026 10.4241 5.32941 10.4689 5.31736 10.5113C5.25255 10.7791 5.10911 11.3571 5.08148 11.475C5.0443 11.6301 4.95823 11.6631 4.79673 11.5887C3.73423 11.0946 3.07123 9.54231 3.07123 8.29494C3.07123 5.61425 5.01986 3.15244 8.68761 3.15244C11.636 3.15244 13.9279 5.253 13.9279 8.06119C13.9279 10.9905 12.0802 13.3482 9.51742 13.3482C8.65573 13.3482 7.84611 12.9009 7.5688 12.3718L7.03967 14.3926C6.84736 15.1311 6.32886 16.0565 5.98248 16.6207C7.1512 16.982 8.38415 17.0869 9.59711 16.928C10.8101 16.7692 11.9744 16.3504 13.0107 15.7002C14.0469 15.0501 14.9306 14.184 15.6015 13.161C16.2723 12.138 16.7143 10.9823 16.8975 9.77274C17.0807 8.56322 17.0006 7.32842 16.6628 6.15268C16.325 4.97694 15.7373 3.88797 14.9401 2.96016C14.1428 2.03236 13.1546 1.28758 12.0431 0.776704C10.9316 0.265829 9.72286 0.000894947 8.49955 1.71085e-06Z" fill="black"/>
</g>
<defs>
<clipPath id="clip0_5457_1375">
<rect width="17" height="17" fill="white"/>
</clipPath>
</defs>
</svg>
