<svg width="17" height="17" viewBox="0 0 17 17" fill="none" xmlns="http://www.w3.org/2000/svg">
<path d="M8.5 0C3.80552 0 0 3.80552 0 8.5C0 13.1945 3.80552 17 8.5 17C13.1945 17 17 13.1945 17 8.5C17 3.80552 13.1945 0 8.5 0ZM11.769 9.58995C11.769 9.58995 12.5207 10.3319 12.7057 10.6764C12.711 10.684 12.7143 10.6899 12.7155 10.6941C12.7904 10.8198 12.809 10.9193 12.7712 10.9924C12.7093 11.1146 12.4968 11.1748 12.4242 11.1802H11.096C11.004 11.1802 10.8109 11.1562 10.5772 10.9951C10.3974 10.8694 10.2204 10.6631 10.0477 10.4621C9.79005 10.1628 9.56693 9.90427 9.34203 9.90427C9.31346 9.90415 9.28506 9.90863 9.25792 9.91755C9.08792 9.97245 8.8701 10.2151 8.8701 10.8614C8.8701 11.0633 8.71073 11.1793 8.59828 11.1793H7.99C7.78281 11.1793 6.70349 11.1067 5.74724 10.0982C4.57672 8.86302 3.52307 6.38562 3.51422 6.3626C3.44781 6.20234 3.58505 6.11646 3.73469 6.11646H5.07609C5.25495 6.11646 5.31339 6.22536 5.35411 6.32187C5.40193 6.43432 5.57724 6.88146 5.865 7.38437C6.33161 8.20427 6.6176 8.53719 6.84693 8.53719C6.88993 8.53668 6.93216 8.52574 6.97 8.50531C7.26927 8.33885 7.21349 7.27193 7.20021 7.05057C7.20021 7.00896 7.19932 6.57333 7.04615 6.36437C6.93635 6.21297 6.74953 6.15542 6.6362 6.13417C6.68207 6.07087 6.7425 6.01954 6.8124 5.98453C7.01781 5.88182 7.38792 5.86677 7.75536 5.86677H7.9599C8.35833 5.87208 8.46104 5.89776 8.60536 5.93406C8.89755 6.00401 8.90375 6.1926 8.87807 6.83807C8.8701 7.02135 8.86214 7.22854 8.86214 7.47292L8.85948 7.64292C8.85063 7.97141 8.84 8.34417 9.07198 8.49734C9.10189 8.51707 9.13709 8.52726 9.17292 8.52656C9.25349 8.52656 9.49609 8.52656 10.1531 7.39943C10.3549 7.03625 10.531 6.65931 10.6799 6.27141C10.6932 6.24838 10.7321 6.17755 10.7782 6.1501C10.8125 6.13379 10.85 6.12503 10.888 6.12443H12.4649C12.6367 6.12443 12.7544 6.1501 12.7766 6.21651C12.8155 6.32187 12.7695 6.64328 12.0496 7.61812L11.7282 8.04224C11.0757 8.89755 11.0757 8.94094 11.769 9.58995Z" fill="black"/>
</svg>
