<svg width="17" height="17" viewBox="0 0 17 17" fill="none" xmlns="http://www.w3.org/2000/svg">
<g clip-path="url(#clip0_5457_1377)">
<mask id="mask0_5457_1377" style="mask-type:luminance" maskUnits="userSpaceOnUse" x="0" y="0" width="17" height="17">
<path d="M0 0H17V17H0V0Z" fill="white"/>
</mask>
<g mask="url(#mask0_5457_1377)">
<path d="M16.6463 4.60912C16.5496 4.26594 16.3621 3.95518 16.1037 3.70954C15.8376 3.45667 15.5114 3.27578 15.156 3.18396C13.8257 2.83333 8.4962 2.83333 8.4962 2.83333C6.27441 2.80872 4.05319 2.9199 1.84495 3.16625C1.48951 3.26486 1.16394 3.44979 0.897204 3.70458C0.635121 3.95675 0.445287 4.26771 0.346121 4.60842C0.107521 5.89168 -0.00822492 7.19477 0.00045411 8.5C-0.00804589 9.80404 0.107412 11.1067 0.346121 12.3916C0.443162 12.7309 0.632287 13.0404 0.895079 13.2905C1.15787 13.5405 1.48512 13.7211 1.84495 13.8168C3.19291 14.1667 8.4962 14.1667 8.4962 14.1667C10.7208 14.1916 12.9449 14.0804 15.156 13.8337C15.5114 13.7419 15.8376 13.561 16.1037 13.3082C16.3619 13.0624 16.5491 12.7517 16.6456 12.4086C16.8899 11.1257 17.0088 9.82216 17.0005 8.51629C17.0187 7.20489 16.9 5.89587 16.6463 4.60912ZM6.80187 10.9253V6.07537L11.236 8.50071L6.80187 10.9253Z" fill="black"/>
</g>
</g>
<defs>
<clipPath id="clip0_5457_1377">
<rect width="17" height="17" fill="white"/>
</clipPath>
</defs>
</svg>
