<?xml version="1.0" encoding="utf-8"?>
<!-- Generator: Adobe Illustrator 27.2.0, SVG Export Plug-In . SVG Version: 6.00 Build 0)  -->
<!DOCTYPE svg PUBLIC "-//W3C//DTD SVG 1.1//EN" "http://www.w3.org/Graphics/SVG/1.1/DTD/svg11.dtd" [
	<!ENTITY ns_extend "http://ns.adobe.com/Extensibility/1.0/">
	<!ENTITY ns_ai "http://ns.adobe.com/AdobeIllustrator/10.0/">
	<!ENTITY ns_graphs "http://ns.adobe.com/Graphs/1.0/">
	<!ENTITY ns_vars "http://ns.adobe.com/Variables/1.0/">
	<!ENTITY ns_imrep "http://ns.adobe.com/ImageReplacement/1.0/">
	<!ENTITY ns_sfw "http://ns.adobe.com/SaveForWeb/1.0/">
	<!ENTITY ns_custom "http://ns.adobe.com/GenericCustomNamespace/1.0/">
	<!ENTITY ns_adobe_xpath "http://ns.adobe.com/XPath/1.0/">
]>
<svg version="1.1" id="Laag_1" xmlns:x="&ns_extend;" xmlns:i="&ns_ai;" xmlns:graph="&ns_graphs;"
	 xmlns="http://www.w3.org/2000/svg" xmlns:xlink="http://www.w3.org/1999/xlink" x="0px" y="0px" viewBox="0 0 96 96"
	 style="enable-background:new 0 0 96 96;" xml:space="preserve">
<style type="text/css">
	.st0{fill:#333333;}
</style>
<metadata>
	<sfw  xmlns="&ns_sfw;">
		<slices></slices>
		<sliceSourceBounds  bottomLeftOrigin="true" height="67" width="62.56" x="22.44" y="-82"></sliceSourceBounds>
	</sfw>
</metadata>
<g>
	<path class="st0" d="M48.29,80.91l-4.37-4.37c-0.32-0.32-0.09-0.86,0.36-0.86h2.53V44.76h-2.53c-0.45,0-0.68-0.54-0.36-0.86
		l4.37-4.37l4.37,4.37c0.32,0.32,0.09,0.86-0.36,0.86h-2.53v30.92h2.53c0.45,0,0.68,0.54,0.36,0.86L48.29,80.91z"/>
</g>
<g>
	<g>
		<path class="st0" d="M22.44,27V16.8c0-1,0.81-1.8,1.8-1.8h32.43c1.44,0,1.68,2.05,0.29,2.39l-13.75,3.33
			c-2.36,0.57-4.02,2.69-4.02,5.12V27H22.44z M73.51,29H44h-4.81H22.44v53h16.75V42.73c0-3.72,3.01-6.73,6.73-6.73h21.31
			c0.36,0,0.72-0.02,1.08-0.06L77,35v-2.51C77,30.56,75.44,29,73.51,29z"/>
	</g>
</g>
<path class="st0" d="M80.67,62c-0.72,0.42-16,8.57-18.63,9.98c-0.02,0.01-0.03,0.02-0.05,0.03c-0.1,0.05-0.2,0.11-0.34,0.17
	c-0.99,0.5-1.81,0.15-2.15-0.5c-0.49-0.94,0.13-1.81,0.6-2.06c0.46-0.24,1.72-0.93,3.11-1.66c0.48-0.25,0.61-0.32,1.11-0.58
	c2.01-1.08,3.94-2.11,4.72-2.53c0.2-0.11,0.28-0.36,0.17-0.57l-0.14-0.26l-0.13-0.25c-0.11-0.21-0.36-0.29-0.57-0.18
	c-0.82,0.43-2.87,1.51-4.73,2.51c-2.62,1.38-5.25,2.77-5.81,3.05c-0.35,0.18-0.79,0.31-1.2,0.22s-0.79-0.37-1.05-0.87
	c-0.25-0.48-0.27-0.95-0.09-1.38c0.17-0.42,0.59-0.76,0.83-0.89l10.48-5.51c0.21-0.11,0.29-0.36,0.18-0.57l-0.13-0.25l-0.13-0.25
	c-0.11-0.21-0.36-0.29-0.57-0.18l-10.48,5.51c-0.54,0.28-0.98,0.44-1.43,0.39c-0.47-0.06-0.97-0.28-1.3-0.89
	c-0.31-0.6-0.25-1.09-0.01-1.52c0.25-0.44,0.56-0.67,1.18-1.03c1.2-0.69,8.66-4.56,10.45-5.49c0.21-0.11,0.3-0.37,0.18-0.59
	l-0.13-0.24l-0.14-0.26c-0.11-0.21-0.36-0.29-0.57-0.18c-0.77,0.4-2.62,1.35-4.56,2.37c-2.57,1.32-5.21,2.76-5.94,3.12
	c-0.46,0.23-0.85,0.23-1.28,0.04c-0.42-0.17-0.73-0.42-0.96-0.88c-0.24-0.48-0.25-0.89-0.14-1.37c0.11-0.47,0.38-0.86,0.85-1.11
	c0.76-0.41,4.09-2.12,7.29-3.8c1.26-0.66,4.98-2.63,7.14-3.77c0.07-0.04,0.11-0.08,0.15-0.14l0.15-0.07
	c0.38-0.19,0.28-0.75-0.14-0.8l-0.98-0.11c0,0-2.92-0.35-3.77-0.54c-0.88-0.2-1.79-0.72-2.14-1.17c-0.37-0.49-0.44-1.17-0.34-1.76
	c0.08-0.48,0.38-0.91,0.84-1.24c0.5-0.36,1.11-0.44,1.88-0.32c1.13,0.17,10.42,1.31,13.07,1.54c3.43,0.29,7.01,1.53,8.83,5.01
	C86.23,54.6,84.72,59.6,80.67,62z"/>
</svg>
