<?xml version="1.0" encoding="utf-8"?>
<!-- Generator: Adobe Illustrator 26.2.1, SVG Export Plug-In . SVG Version: 6.00 Build 0)  -->
<svg version="1.1" id="Laag_1" xmlns="http://www.w3.org/2000/svg" xmlns:xlink="http://www.w3.org/1999/xlink" x="0px" y="0px"
	 viewBox="0 0 96 96" style="enable-background:new 0 0 96 96;" xml:space="preserve">
<style type="text/css">
	.st0{fill-opacity:0;}
	.st1{fill:#333333;}
</style>
<rect x="11" y="11" class="st0" width="70" height="74"/>
<path class="st1" d="M19.9,50.1l5.5-5.5l5.5,5.5c0.2,0.2,0.2,0.6,0,0.9c-0.1,0.1-0.3,0.2-0.4,0.2h-10c-0.3,0-0.6-0.3-0.6-0.6
	C19.7,50.4,19.8,50.2,19.9,50.1z M43.9,71.9c-0.6-0.1-1.2-0.2-1.8-0.4L41,75.8c0.7,0.2,1.4,0.4,2.1,0.5L43.9,71.9z M40.4,71
	c-0.6-0.2-1.1-0.4-1.7-0.7l-1.9,4c0.7,0.3,1.3,0.6,2,0.9L40.4,71z M37.2,69.4c-0.5-0.3-1-0.6-1.5-1L33.1,72c0.6,0.4,1.2,0.8,1.8,1.2
	L37.2,69.4z M34.3,67.3c-0.4-0.4-0.9-0.8-1.3-1.2l-3.2,3.1c0.5,0.5,1,1,1.6,1.5L34.3,67.3z M31.8,64.7c-0.4-0.5-0.7-1-1.1-1.5
	L27,65.7c0.4,0.6,0.8,1.2,1.3,1.8L31.8,64.7z M29.8,61.7c-0.3-0.5-0.5-1.1-0.8-1.6l-4.1,1.8c0.3,0.7,0.6,1.3,1,2L29.8,61.7z
	 M28.4,58.4c-0.2-0.6-0.3-1.1-0.5-1.7l-4.3,1c0.2,0.7,0.4,1.4,0.6,2.1L28.4,58.4z M27.6,54.9c-0.1-0.6-0.1-1.2-0.2-1.8L23,53.3
	c0,0.7,0.1,1.5,0.2,2.2L27.6,54.9z"/>
<path class="st1" d="M58.2,30.9L58.2,30.9l-22.7,0.9c0.3-0.6,0.2-1.2-0.1-1.8l25-1c-0.7,0.4-1.3,0.9-1.8,1.4
	C58.4,30.6,58.3,30.7,58.2,30.9z M57,50.8L42.4,64.3c-1.1,1-2.7,1-3.7-0.1l-2.7-2.7c-1-1-1.1-2.7-0.1-3.7l20.5-22.2
	c0.1-1.7,0.7-3.2,1.8-4.5l0,0c-0.1,0.1-0.2,0.2-0.3,0.3L47.8,42.1l-18.7-0.7c-0.8,0-1.5-0.4-1.9-1c-0.3,0.6-0.8,1-1.4,1.1
	c0.8,1,2,1.6,3.3,1.6l17.2,0.7L34.5,56.5c-1.6,1.8-1.6,4.5,0.1,6.2l2.7,2.7c1.7,1.7,4.5,1.8,6.2,0.1l13.4-12.4L57,50.8z"/>
<path class="st1" d="M60.3,74.1h-2.6l2-2.1c0.3-0.3,0.3-0.8,0-1.1l0,0c-0.3-0.3-0.8-0.3-1.1,0c0,0,0,0,0,0l-3.2,3.2h-1.6v-1.6
	l3.2-3.2c0.3-0.3,0.3-0.8,0-1.1c0,0,0,0,0,0l0,0c-0.3-0.3-0.8-0.3-1.1,0l-2,2v-2.6c0-0.4-0.4-0.8-0.8-0.8h0c-0.4,0-0.8,0.4-0.8,0.8
	v2.6l-2.1-2c-0.3-0.3-0.8-0.3-1.1,0l0,0c-0.3,0.3-0.3,0.8,0,1.1c0,0,0,0,0,0l3.2,3.2v1.6h-1.6l-3.2-3.2c-0.3-0.3-0.8-0.3-1.1,0
	c0,0,0,0,0,0l0,0c-0.3,0.3-0.3,0.8,0,1.1l2,2.1h-2.6c-0.4,0-0.8,0.4-0.8,0.8v0c0,0.4,0.4,0.8,0.8,0.8h2.6l-2,2
	c-0.3,0.3-0.3,0.8,0,1.1l0,0c0.3,0.3,0.8,0.3,1.1,0c0,0,0,0,0,0l3.2-3.2h1.6v1.6l-3.2,3.2c-0.3,0.3-0.3,0.8,0,1.1c0,0,0,0,0,0l0,0
	c0.3,0.3,0.8,0.3,1.1,0l2.1-2v2.6c0,0.4,0.4,0.8,0.8,0.8h0c0.4,0,0.8-0.4,0.8-0.8v-2.6l2,2c0.3,0.3,0.8,0.3,1.1,0l0,0
	c0.3-0.3,0.3-0.8,0-1.1c0,0,0,0,0,0l-3.2-3.2v-1.6h1.6l3.2,3.2c0.3,0.3,0.8,0.3,1.1,0c0,0,0,0,0,0l0,0c0.3-0.3,0.3-0.8,0-1.1l-2-2
	h2.6c0.4,0,0.8-0.4,0.8-0.8v0C61.1,74.4,60.7,74.1,60.3,74.1C60.3,74.1,60.3,74.1,60.3,74.1z"/>
<path class="st1" d="M41,13.7c0-0.4,0.1-0.7,0.4-1c0.6-0.6,1.5-0.6,2,0c0.6,0.6,0.6,1.5,0,2c0,0,0,0,0,0c-0.3,0.3-0.6,0.4-1,0.4
	c-0.4,0-0.8-0.1-1-0.4C41.1,14.5,41,14.1,41,13.7z M41.8,13.8c0,0.2,0.1,0.3,0.2,0.5c0.3,0.3,0.7,0.3,0.9,0c0.3-0.3,0.3-0.7,0-0.9
	c-0.2-0.2-0.5-0.2-0.7-0.1c-0.1,0-0.1,0.1-0.2,0.1c-0.1,0.1-0.1,0.1-0.1,0.2C41.8,13.6,41.8,13.7,41.8,13.8L41.8,13.8z M52.1,13v1.8
	c-0.8-0.7-1.7-1.1-2.8-1.1c-1,0-2,0.4-2.7,1.1c-0.7,0.7-1.1,1.7-1.1,2.8c0,1,0.4,2,1.1,2.7c0.7,0.7,1.7,1.1,2.7,1.1
	c0.5,0,1-0.1,1.4-0.3c0.2-0.1,0.5-0.2,0.7-0.4c0.3-0.2,0.5-0.3,0.7-0.5v1.9c-0.8,0.5-1.8,0.7-2.8,0.8c-1.4,0-2.8-0.5-3.8-1.5
	c-1-1-1.6-2.3-1.5-3.7c0-1.3,0.5-2.5,1.3-3.5c1-1.2,2.5-1.9,4.1-1.9C50.4,12.2,51.3,12.5,52.1,13L52.1,13z"/>
<path class="st1" d="M33.1,30.1h-2.2c-0.1-1-0.5-1.9-1.1-2.6l1.5-1.5c0.4-0.4,0.3-0.9,0-1.3c-0.4-0.3-0.9-0.3-1.3,0l-1.5,1.5
	c-0.8-0.6-1.7-1-2.6-1.1v-2.2c0-0.5-0.4-0.9-0.9-0.9c-0.5,0-0.9,0.4-0.9,0.9v2.2c-1,0.1-1.9,0.5-2.6,1.1l-1.5-1.5
	c-0.4-0.4-0.9-0.3-1.3,0c-0.3,0.4-0.3,0.9,0,1.3l1.5,1.5c-0.6,0.8-1,1.7-1.1,2.6h-2.2c-0.5,0-0.9,0.4-0.9,0.9c0,0.5,0.4,0.9,0.9,0.9
	h2.2c0.1,1,0.5,1.9,1.1,2.6l-1.5,1.5c-0.4,0.4-0.4,0.9,0,1.3s0.9,0.4,1.3,0c0,0,0,0,0,0l1.5-1.5c0.8,0.6,1.7,1,2.6,1.1v2.2
	c0,0.5,0.4,0.9,0.9,0.9c0.5,0,0.9-0.4,0.9-0.9v-2.2c1-0.1,1.9-0.5,2.6-1.1l1.5,1.5c0.4,0.4,0.9,0.3,1.3,0c0.3-0.4,0.3-0.9,0-1.3
	l-1.5-1.5c0.6-0.8,1-1.7,1.1-2.6h2.2c0.5,0,0.9-0.4,0.9-0.9C34,30.5,33.6,30.1,33.1,30.1z"/>
<path class="st1" d="M64.3,29c-3.8,0-6.9,3.1-6.9,6.9c0,0.1,0,0.2,0,0.3l1.3,32c0,0.2,0.1,0.3,0.1,0.5c0,0.1,0,0.2,0,0.3l0,0.3
	c1.2-0.3,2.4,0.5,2.7,1.7c0.1,0.6,0,1.3-0.4,1.8c0.6,0.2,1.1,0.7,1.3,1.2l0,0h3.9c1.9,0,3.5-1.5,3.6-3.5l1.4-34.3
	c0.2-3.8-2.8-7-6.6-7.2C64.5,29,64.4,29,64.3,29z"/>
</svg>
