<?xml version="1.0" encoding="utf-8"?>
<!-- Generator: Adobe Illustrator 26.2.1, SVG Export Plug-In . SVG Version: 6.00 Build 0)  -->
<svg version="1.1" id="Laag_1" xmlns="http://www.w3.org/2000/svg" xmlns:xlink="http://www.w3.org/1999/xlink" x="0px" y="0px"
	 viewBox="0 0 96 96" style="enable-background:new 0 0 96 96;" xml:space="preserve">
<style type="text/css">
	.st0{fill-opacity:0;}
	.st1{fill:#333333;}
</style>
<rect x="13" y="8" class="st0" width="70" height="80"/>
<path class="st1" d="M46.5,26.7c0-1.3,1-2.3,2.3-2.3c1.3,0,2.3,1,2.3,2.3c0,1.3-1,2.3-2.3,2.3C47.5,29,46.5,28,46.5,26.7z
	 M58.8,49.2c2.4,0,4.3-1.9,4.3-4.3c0-2.4-1.9-4.3-4.3-4.3c-2.4,0-4.3,1.9-4.3,4.3c0,0,0,0,0,0C54.5,47.3,56.4,49.2,58.8,49.2z
	 M47.6,42.2c0-3.8-3.1-6.9-6.9-6.9c-3.8,0-6.9,3.1-6.9,6.9c0,3.8,3.1,6.9,6.9,6.9c0,0,0,0,0,0C44.5,49.1,47.6,46,47.6,42.2z
	 M51.9,57.3c-6.4,0-11.6,5.2-11.6,11.6c0,6.4,5.2,11.6,11.6,11.6s11.6-5.2,11.6-11.6c0,0,0,0,0,0C63.5,62.5,58.3,57.3,51.9,57.3z
	 M74,61.2C73.9,75.6,62.1,87.1,47.8,87C33.6,86.9,22.1,75.4,22,61.2C22,47,32.2,32.4,48,9C63.8,32.4,74,47,74,61.2z M52.2,44.9
	c0,3.7,3,6.6,6.6,6.6c3.7,0,6.6-3,6.6-6.6s-3-6.6-6.6-6.6c0,0,0,0,0,0C55.2,38.3,52.2,41.2,52.2,44.9z M44.3,26.7
	c0,2.5,2,4.5,4.5,4.5s4.5-2,4.5-4.5s-2-4.5-4.5-4.5c0,0,0,0,0,0C46.3,22.2,44.3,24.2,44.3,26.7z M40.7,51.7c5.3,0,9.5-4.3,9.5-9.5
	s-4.3-9.5-9.5-9.5s-9.5,4.3-9.5,9.5c0,0,0,0,0,0C31.2,47.4,35.5,51.7,40.7,51.7z M66.3,68.9c0-7.9-6.4-14.4-14.4-14.4
	c-7.9,0-14.4,6.4-14.4,14.4c0,7.9,6.4,14.4,14.4,14.4c0,0,0,0,0,0C59.8,83.3,66.3,76.8,66.3,68.9z"/>
</svg>
