<svg width="263" height="35" viewBox="0 0 263 35" fill="none" xmlns="http://www.w3.org/2000/svg">
<g clip-path="url(#clip0_130_32)">
<path d="M7.32974 25.9718C5.27131 25.2004 3.4337 23.9308 1.97967 22.2751C0.721626 20.8873 0.0168284 19.0817 0 17.204C0.00744501 15.3103 0.712723 13.4866 1.97967 12.0854C3.4337 10.4298 5.27131 9.16012 7.32974 8.38876C9.68451 7.45219 12.1981 6.98548 14.7303 7.01445C16.8217 7.00412 18.9029 7.30749 20.9052 7.9148C22.6747 8.45736 24.3289 9.32515 25.7839 10.4741L26.1373 7.65417H29.4369V26.7537H26.1845L25.8781 23.839C24.4143 25.0014 22.7421 25.8702 20.9524 26.3983C18.9539 27.0252 16.8707 27.3368 14.7773 27.3224C12.2318 27.3537 9.70392 26.8954 7.32974 25.9718ZM5.25571 20.6636C6.39946 21.7553 7.77884 22.5663 9.28596 23.0333C11.0417 23.6195 12.8803 23.9156 14.7303 23.9101C16.5881 23.9174 18.4348 23.6213 20.1982 23.0333C21.7053 22.5663 23.0845 21.7553 24.2283 20.6636C24.7045 20.2123 25.0857 19.6692 25.3489 19.0667C25.612 18.4642 25.7519 17.8146 25.7603 17.1566C25.7584 16.501 25.6213 15.8529 25.3576 15.2533C25.0939 14.6537 24.7094 14.1157 24.2283 13.6732C23.0898 12.5745 21.7088 11.7624 20.1982 11.3035C18.4334 10.7236 16.5868 10.4354 14.7303 10.4504C12.8816 10.4371 11.043 10.7253 9.28596 11.3035C7.77531 11.7624 6.39417 12.5745 5.25571 13.6732C4.77462 14.1157 4.39003 14.6537 4.12634 15.2533C3.86265 15.8529 3.72555 16.501 3.72371 17.1566C3.73203 17.8146 3.87208 18.4642 4.13526 19.0667C4.39845 19.6692 4.77944 20.2123 5.25571 20.6636Z" fill="white"/>
<path d="M42.6823 26.3505C40.8834 25.8274 39.2025 24.9582 37.733 23.7912L37.4266 26.706H34.127V-0.0239258H37.9686V10.4027C39.4506 9.27465 41.1178 8.41647 42.8945 7.86711C44.8814 7.26342 46.9465 6.95994 49.0222 6.96662C51.5468 6.93709 54.0527 7.40402 56.3991 8.34107C58.4576 9.11244 60.2952 10.3821 61.7492 12.0377C63.0162 13.4389 63.7214 15.2625 63.7289 17.1562C63.7121 19.0339 63.0073 20.8394 61.7492 22.2273C60.2952 23.8829 58.4576 25.1526 56.3991 25.924C54.0479 26.8414 51.5442 27.2999 49.0222 27.2747C46.8735 27.3065 44.7335 26.9945 42.6823 26.3505ZM39.3592 20.6159C40.5082 21.7129 41.8963 22.5244 43.4129 22.9856C45.1677 23.5756 47.0069 23.8718 48.8572 23.8624C50.7075 23.8718 52.5467 23.5756 54.3015 22.9856C55.8181 22.5244 57.2064 21.7129 58.3554 20.6159C58.8284 20.1634 59.2058 19.6195 59.465 19.0169C59.7242 18.4143 59.8597 17.7652 59.8636 17.1087C59.8648 16.4549 59.7314 15.8079 59.4718 15.2084C59.2122 14.6089 58.8322 14.07 58.3554 13.6254C57.2118 12.5212 55.8217 11.7086 54.3015 11.2557C52.5454 10.6738 50.7062 10.3856 48.8572 10.4027C47.0082 10.3856 45.169 10.6738 43.4129 11.2557C41.8928 11.7086 40.5028 12.5212 39.3592 13.6254C38.8824 14.07 38.5022 14.6089 38.2427 15.2084C37.9831 15.8079 37.8496 16.4549 37.8508 17.1087C37.8574 17.7784 38.0011 18.4396 38.2727 19.0511C38.5444 19.6627 38.9382 20.2114 39.4298 20.6632L39.3592 20.6159Z" fill="white"/>
<path d="M73.8163 25.9716C71.771 25.1993 69.9431 23.9387 68.4898 22.2985C67.2333 20.9191 66.5282 19.1215 66.51 17.2511C66.5541 15.3425 67.3016 13.5184 68.6076 12.1327C70.0656 10.4923 71.8916 9.22502 73.9341 8.43599C76.2718 7.49724 78.7704 7.03019 81.2875 7.06154C83.8095 7.03635 86.3131 7.49479 88.6644 8.41227C90.7228 9.18363 92.5604 10.4533 94.0145 12.1089C95.2725 13.4968 95.9773 15.3024 95.9941 17.1801C96.0127 17.7928 95.9573 18.4055 95.8291 19.0048H70.7995C71.7243 20.5899 73.152 21.8165 74.8533 22.4881C76.8749 23.4057 79.0694 23.8745 81.2875 23.8625C83.1292 23.8521 84.9608 23.589 86.7318 23.0805C88.3024 22.6787 89.7823 21.979 91.0919 21.0189L94.3207 22.9621C92.7116 24.4144 90.7928 25.4764 88.7116 26.0663C86.3143 26.8514 83.8087 27.2513 81.2875 27.2512C78.738 27.3166 76.2004 26.882 73.8163 25.9716ZM91.7282 15.4028C90.8372 13.788 89.4109 12.5385 87.698 11.872C85.6493 10.9329 83.4212 10.4556 81.1696 10.4739C78.9364 10.4618 76.7265 10.9304 74.6883 11.8483C72.9795 12.5217 71.5554 13.7693 70.6581 15.3791L91.7282 15.4028Z" fill="white"/>
<path d="M99.9302 0.0239258H103.725V26.7537H99.9302V0.0239258Z" fill="white"/>
<path d="M113.788 26.3508C111.703 25.8377 109.697 25.0404 107.826 23.9811L110.842 21.2797C112.338 22.0018 113.924 22.5198 115.556 22.82C117.929 23.3008 120.347 23.5232 122.768 23.4835C124.215 23.4767 125.658 23.3419 127.081 23.0807C128.47 22.851 129.834 22.494 131.158 22.0143C132.266 21.6114 132.832 21.1612 132.832 20.711C132.832 20.2608 131.889 19.5499 130.051 19.2418C127.641 18.8796 125.204 18.721 122.768 18.7678C119.08 18.8559 115.398 18.4171 111.832 17.4646C108.981 16.5878 107.566 15.0949 107.566 12.9859C107.566 10.8768 108.957 9.384 111.714 8.43613C115.202 7.41001 118.829 6.93822 122.462 7.03796C125.302 6.94627 128.141 7.2493 130.899 7.93845C132.755 8.45029 134.52 9.24977 136.131 10.3081L133.774 13.1755C132.33 12.2371 130.735 11.5558 129.061 11.1613C127.011 10.6997 124.916 10.4691 122.815 10.474C120.301 10.4589 117.791 10.6891 115.32 11.1613C112.964 11.6115 111.714 12.2513 111.714 13.057C111.714 13.8627 113.011 14.4077 115.627 14.7158C118.011 15.0252 120.411 15.1833 122.815 15.1896C126.42 15.0271 130.025 15.5004 133.468 16.5878C135.825 17.5357 137.003 18.9574 137.003 20.8057C136.981 21.4717 136.8 22.1227 136.476 22.704C136.152 23.2854 135.695 23.7802 135.141 24.147C133.634 25.2972 131.898 26.1056 130.051 26.5167C127.682 27.0911 125.252 27.3696 122.815 27.346C119.776 27.4058 116.742 27.0713 113.788 26.3508Z" fill="white"/>
<path d="M200.591 12.1325C199.137 10.4661 197.289 9.19482 195.217 8.43585C192.884 7.51002 190.396 7.04339 187.887 7.0614C185.361 7.03756 182.855 7.51264 180.51 8.45957C178.459 9.23174 176.629 10.5016 175.184 12.1562C174.628 12.8054 174.168 13.5316 173.817 14.3126L174.878 15.3315C176.268 16.7059 177.517 17.9856 178.837 19.0756H198.069C199.559 17.96 200.968 16.7406 202.288 15.4264C202.008 14.202 201.424 13.0688 200.591 12.1325ZM177.329 15.379C178.243 13.7737 179.672 12.5286 181.383 11.8482C183.428 10.9284 185.646 10.4597 187.887 10.4737C190.131 10.4559 192.352 10.9332 194.392 11.8719C196.11 12.5313 197.538 13.7827 198.422 15.4027L177.329 15.379Z" fill="white"/>
<path d="M209.264 7.63037H205.847V11.8959C206.973 10.8311 208.188 9.86392 209.476 9.00482L209.264 7.63037ZM207.85 18.8153L205.847 20.7584V26.7299H209.665V17.7015C209.64 17.4651 209.64 17.2269 209.665 16.9906L207.85 18.8153Z" fill="white"/>
<path d="M234.411 20.5215C234.7 21.1589 235.082 21.7499 235.543 22.2752C236.008 22.8259 236.529 23.3261 237.098 23.7679C236.076 22.7984 235.174 21.7084 234.411 20.5215Z" fill="white"/>
<path d="M263 17.1802V24.8816C262.968 26.7564 262.265 28.5568 261.02 29.9528C259.571 31.6136 257.732 32.8843 255.67 33.6494C253.333 34.5577 250.846 35.0159 248.341 35.0002C245.54 35.0569 242.758 34.5409 240.162 33.4835C238.07 32.6512 236.157 31.42 234.529 29.8579L236.886 27.7726C238.262 28.986 239.865 29.9124 241.6 30.4977C243.747 31.2663 246.014 31.6434 248.293 31.6114C250.144 31.6283 251.985 31.3319 253.738 30.7346C255.259 30.2852 256.65 29.4721 257.791 28.365C258.268 27.9204 258.648 27.3814 258.908 26.782C259.168 26.1825 259.301 25.5355 259.3 24.8816V23.9811C257.819 25.1167 256.152 25.9829 254.374 26.5404C252.627 27.0921 250.808 27.3796 248.977 27.3935H247.728C245.373 27.3911 243.04 26.9492 240.846 26.0902C239.479 25.5486 238.2 24.8059 237.051 23.8864C236.029 22.9169 235.127 21.8269 234.364 20.64C233.917 20.0002 233.54 19.3129 233.092 18.6968C231.976 16.699 230.552 14.8914 228.873 13.3414C228.708 13.2229 228.567 13.0806 228.402 12.9858C226.08 11.4487 223.329 10.7012 220.553 10.8532C218.855 10.8406 217.172 11.171 215.604 11.8247H215.463C213.894 12.5154 212.44 13.4424 211.149 14.5736C209.853 15.5926 208.628 16.8248 207.284 18.1044C205.001 20.3081 202.576 22.3582 200.025 24.2418C199.672 24.5024 199.247 24.7394 198.847 24.9764C195.397 26.9551 191.481 27.9621 187.51 27.8912C180.44 27.8912 175.962 23.4834 171.625 19.1706L170.588 18.1281C168.845 16.3559 166.926 14.7678 164.861 13.3888C162.128 11.6369 158.958 10.7001 155.717 10.6873C153.968 10.7594 152.235 11.0458 150.555 11.5404C149.043 12.011 147.656 12.8214 146.501 13.9101C146.029 14.3634 145.653 14.9074 145.394 15.5098C145.134 16.1123 144.998 16.7608 144.993 17.4171C144.988 18.0749 145.12 18.7265 145.38 19.3303C145.64 19.9341 146.022 20.477 146.501 20.9243C147.651 22.0199 149.039 22.8312 150.555 23.294C152.311 23.8759 154.15 24.1641 155.999 24.147C157.848 24.1624 159.687 23.8743 161.444 23.294C162.957 22.8257 164.344 22.015 165.497 20.9243C165.976 20.4747 166.358 19.9318 166.622 19.3289C166.885 18.726 167.024 18.0756 167.029 17.4171C167.028 17.1054 166.989 16.7951 166.912 16.4931C168.067 17.4409 169.268 18.5309 170.306 19.6446C169.986 20.7088 169.448 21.6938 168.726 22.5357C167.266 24.1841 165.43 25.4524 163.376 26.2324C161.023 27.1401 158.52 27.5904 155.999 27.5594C153.909 27.5774 151.828 27.2819 149.825 26.6826C148.023 26.1375 146.336 25.2617 144.851 24.0996L144.569 26.9907H141.246V0.260742H144.946V10.7111C146.422 9.57403 148.091 8.71499 149.872 8.1755C151.778 7.64843 153.74 7.35406 155.717 7.29873C163.824 7.29873 169.386 11.5877 173.77 15.9242L174.336 16.4931C175.726 17.8675 177.046 19.1707 178.389 20.2845C183.103 24.0759 185.153 24.0759 187.534 24.0759C192.279 24.1869 196.891 22.4945 200.449 19.3365C201.274 18.673 204.055 16.0664 204.668 15.4977C205.281 14.929 205.682 14.4787 206.2 14.0048C207.39 12.8236 208.649 11.7159 209.971 10.6873C213.058 8.29494 216.845 6.99532 220.742 6.99066C224.808 6.75543 228.811 8.08569 231.937 10.7111C232.99 11.6754 233.931 12.7565 234.741 13.9338C235.378 14.8106 235.991 15.7348 236.556 16.6352C237.122 17.5357 237.287 17.7963 237.664 18.3413C238.877 20.4805 240.722 22.1867 242.943 23.2228L243.415 23.4124L244.381 23.6968C244.816 23.8089 245.256 23.8959 245.701 23.9574L246.832 24.0759H247.398C247.601 24.1002 247.807 24.1002 248.011 24.0759H249.26C250.864 24.0396 252.453 23.76 253.973 23.2466C255.489 22.7837 256.877 21.9724 258.027 20.8769C258.506 20.4272 258.888 19.8845 259.151 19.2816C259.415 18.6787 259.553 18.0283 259.559 17.3698C259.548 16.7123 259.407 16.0634 259.144 15.4612C258.881 14.8591 258.501 14.3156 258.027 13.8626C256.872 12.7739 255.486 11.9636 253.973 11.4929C252.217 10.9127 250.378 10.6246 248.529 10.6399C246.68 10.6246 244.841 10.9127 243.085 11.4929C241.572 11.9636 240.186 12.7739 239.031 13.8626C238.388 14.5193 237.932 15.3377 237.711 16.2323C237.711 16.2323 237.711 16.0665 237.546 15.9954C236.886 14.9764 236.226 13.91 235.425 12.8437C235.425 12.6778 235.661 12.5593 235.779 12.3934C237.24 10.7399 239.074 9.46391 241.128 8.67304C243.483 7.73985 245.998 7.2809 248.529 7.32231C251.052 7.28523 253.558 7.74408 255.906 8.67304C257.96 9.46391 259.795 10.7399 261.256 12.3934C262.356 13.7465 262.97 15.4329 263 17.1802Z" fill="white"/>
</g>
<defs>
<clipPath id="clip0_130_32">
<rect width="263" height="35" fill="white"/>
</clipPath>
</defs>
</svg>
