<svg width="240" height="32" viewBox="0 0 240 32" fill="none" xmlns="http://www.w3.org/2000/svg">
<g clip-path="url(#clip0_5457_1287)">
<path d="M6.68874 23.7455C4.81032 23.0402 3.13342 21.8794 1.80654 20.3656C0.658518 19.0967 0.0153567 17.4459 0 15.7292C0.00679393 13.9978 0.650394 12.3304 1.80654 11.0494C3.13342 9.53563 4.81032 8.37478 6.68874 7.66953C8.83758 6.81324 11.1314 6.38653 13.4421 6.41303C15.3506 6.40358 17.2498 6.68094 19.077 7.2362C20.6918 7.73226 22.2013 8.52566 23.529 9.57611L23.8515 6.99791H26.8626V24.4603H23.8946L23.615 21.7955C22.2792 22.8582 20.7533 23.6526 19.12 24.1354C17.2963 24.7085 15.3953 24.9935 13.485 24.9803C11.1621 25.0089 8.85529 24.5899 6.68874 23.7455ZM4.79609 18.8923C5.83981 19.8904 7.09856 20.6319 8.47388 21.0588C10.076 21.5948 11.7539 21.8655 13.4421 21.8604C15.1374 21.8671 16.8226 21.5964 18.4318 21.0588C19.8071 20.6319 21.0657 19.8904 22.1094 18.8923C22.5441 18.4796 22.8919 17.9831 23.132 17.4322C23.3722 16.8814 23.4999 16.2874 23.5075 15.6858C23.5058 15.0864 23.3807 14.4939 23.14 13.9457C22.8994 13.3975 22.5485 12.9056 22.1094 12.501C21.0705 11.4965 19.8103 10.754 18.4318 10.3345C16.8214 9.80427 15.1362 9.54075 13.4421 9.55442C11.755 9.54233 10.0772 9.80584 8.47388 10.3345C7.09534 10.754 5.83499 11.4965 4.79609 12.501C4.35707 12.9056 4.00611 13.3975 3.76548 13.9457C3.52486 14.4939 3.39974 15.0864 3.39806 15.6858C3.40565 16.2874 3.53345 16.8814 3.77362 17.4322C4.01379 17.9831 4.36147 18.4796 4.79609 18.8923Z" fill="black"/>
<path d="M38.9497 24.0921C37.3081 23.6139 35.7743 22.8192 34.4333 21.7522L34.1537 24.4171H31.1426V-0.0216675H34.6483V9.51122C36.0007 8.47989 37.5221 7.69527 39.1434 7.19299C40.9566 6.64105 42.8411 6.36358 44.7352 6.36969C47.039 6.34269 49.3258 6.7696 51.467 7.62633C53.3454 8.33158 55.0223 9.49243 56.3492 11.0062C57.5054 12.2872 58.149 13.9545 58.1557 15.6858C58.1404 17.4026 57.4972 19.0534 56.3492 20.3223C55.0223 21.836 53.3454 22.9969 51.467 23.7021C49.3214 24.541 47.0367 24.9601 44.7352 24.9371C42.7745 24.9661 40.8216 24.6809 38.9497 24.0921ZM35.9173 18.8491C36.9657 19.852 38.2325 20.5939 39.6165 21.0156C41.2178 21.555 42.8962 21.8258 44.5846 21.8172C46.2731 21.8258 47.9515 21.555 49.5528 21.0156C50.9368 20.5939 52.2037 19.852 53.2521 18.8491C53.6838 18.4353 54.0283 17.938 54.2648 17.3871C54.5013 16.8361 54.6249 16.2427 54.6285 15.6425C54.6296 15.0447 54.5078 14.4531 54.2709 13.905C54.0341 13.3569 53.6873 12.8642 53.2521 12.4577C52.2086 11.4482 50.94 10.7052 49.5528 10.2912C47.9503 9.75911 46.2719 9.49565 44.5846 9.51122C42.8974 9.49565 41.219 9.75911 39.6165 10.2912C38.2293 10.7052 36.9608 11.4482 35.9173 12.4577C35.4822 12.8642 35.1352 13.3569 34.8983 13.905C34.6615 14.4531 34.5397 15.0447 34.5408 15.6425C34.5468 16.2548 34.6779 16.8593 34.9258 17.4184C35.1737 17.9775 35.5331 18.4792 35.9817 18.8923L35.9173 18.8491Z" fill="black"/>
<path d="M67.3607 23.7455C65.4943 23.0394 63.8262 21.8869 62.5 20.3873C61.3534 19.1261 60.71 17.4826 60.6934 15.7725C60.7336 14.0275 61.4158 12.3598 62.6075 11.0928C63.938 9.59301 65.6043 8.43438 67.4682 7.71298C69.6015 6.8547 71.8815 6.42768 74.1785 6.45634C76.4799 6.43331 78.7646 6.85246 80.9103 7.69129C82.7887 8.39654 84.4656 9.55739 85.7925 11.0711C86.9405 12.34 87.5837 13.9908 87.599 15.7076C87.616 16.2677 87.5654 16.8279 87.4485 17.3759H64.6077C65.4516 18.8251 66.7545 19.9466 68.307 20.5606C70.1518 21.3995 72.1544 21.8282 74.1785 21.8173C75.8591 21.8077 77.5306 21.5671 79.1467 21.1023C80.58 20.7349 81.9304 20.0952 83.1255 19.2174L86.072 20.994C84.6036 22.3218 82.8526 23.2928 80.9533 23.8321C78.7657 24.5499 76.4792 24.9155 74.1785 24.9154C71.852 24.9752 69.5363 24.5779 67.3607 23.7455ZM83.7062 14.0827C82.893 12.6062 81.5915 11.4639 80.0284 10.8545C78.1589 9.99586 76.1256 9.55951 74.071 9.57618C72.033 9.56513 70.0164 9.99363 68.1565 10.8328C66.5971 11.4485 65.2975 12.5892 64.4787 14.061L83.7062 14.0827Z" fill="black"/>
<path d="M91.1914 0.021698H94.6542V24.4604H91.1914V0.021698Z" fill="black"/>
<path d="M103.838 24.092C101.935 23.6229 100.104 22.894 98.3967 21.9255L101.15 19.4555C102.515 20.1157 103.961 20.5894 105.451 20.8639C107.617 21.3034 109.823 21.5068 112.032 21.4704C113.352 21.4642 114.669 21.341 115.968 21.1021C117.235 20.8921 118.481 20.5658 119.689 20.1272C120.7 19.7589 121.216 19.3472 121.216 18.9356C121.216 18.524 120.356 17.874 118.678 17.5923C116.479 17.2612 114.256 17.1162 112.032 17.159C108.667 17.2395 105.307 16.8383 102.053 15.9674C99.4506 15.1658 98.1602 13.8008 98.1602 11.8726C98.1602 9.94438 99.429 8.57949 101.945 7.71286C105.128 6.7747 108.437 6.34335 111.753 6.43454C114.345 6.35071 116.936 6.62776 119.452 7.25784C121.146 7.72581 122.757 8.45676 124.227 9.42439L122.076 12.046C120.758 11.1881 119.303 10.5652 117.775 10.2045C115.904 9.78243 113.992 9.57162 112.075 9.57607C109.781 9.56226 107.49 9.77277 105.236 10.2045C103.085 10.6161 101.945 11.201 101.945 11.9377C101.945 12.6743 103.128 13.1726 105.516 13.4543C107.691 13.7371 109.882 13.8817 112.075 13.8875C115.365 13.7389 118.655 14.1716 121.797 15.1658C123.947 16.0324 125.023 17.3323 125.023 19.0222C125.002 19.6311 124.838 20.2263 124.542 20.7578C124.246 21.2893 123.828 21.7417 123.324 22.0771C121.948 23.1287 120.364 23.8678 118.678 24.2437C116.516 24.7688 114.299 25.0234 112.075 25.0019C109.302 25.0566 106.534 24.7508 103.838 24.092Z" fill="black"/>
<path d="M183.049 11.0927C181.723 9.5692 180.036 8.40684 178.146 7.71293C176.017 6.86645 173.746 6.43982 171.457 6.45629C169.152 6.43449 166.864 6.86885 164.725 7.73461C162.853 8.4406 161.184 9.60162 159.865 11.1144C159.357 11.708 158.937 12.3719 158.617 13.0859L159.585 14.0175C160.854 15.2741 161.994 16.4441 163.198 17.4407H180.748C182.108 16.4207 183.394 15.3059 184.598 14.1043C184.342 12.9849 183.81 11.9488 183.049 11.0927ZM161.822 14.0609C162.656 12.5933 163.96 11.4549 165.521 10.8328C167.388 9.99183 169.412 9.56332 171.457 9.57613C173.505 9.55982 175.531 9.99622 177.393 10.8545C178.96 11.4574 180.263 12.6014 181.071 14.0826L161.822 14.0609Z" fill="black"/>
<path d="M190.964 6.97626H187.846V10.8762C188.874 9.90264 189.982 9.01836 191.158 8.2329L190.964 6.97626ZM189.674 17.2025L187.846 18.9791V24.4387H191.33V16.1841C191.308 15.968 191.308 15.7503 191.33 15.5342L189.674 17.2025Z" fill="black"/>
<path d="M213.912 18.7623C214.176 19.345 214.524 19.8854 214.944 20.3657C215.369 20.8692 215.845 21.3265 216.364 21.7305C215.431 20.844 214.608 19.8475 213.912 18.7623Z" fill="black"/>
<path d="M239.999 15.7075V22.7488C239.97 24.4629 239.329 26.1089 238.193 27.3853C236.87 28.9038 235.192 30.0655 233.311 30.7651C231.177 31.5955 228.909 32.0145 226.622 32.0001C224.067 32.052 221.528 31.5802 219.159 30.6134C217.249 29.8524 215.504 28.7268 214.019 27.2985L216.169 25.392C217.425 26.5014 218.887 27.3484 220.471 27.8836C222.43 28.5863 224.499 28.931 226.579 28.9018C228.268 28.9172 229.947 28.6462 231.547 28.1002C232.936 27.6892 234.205 26.9459 235.246 25.9336C235.681 25.5271 236.028 25.0344 236.265 24.4863C236.502 23.9382 236.624 23.3466 236.623 22.7488V21.9255C235.271 22.9638 233.75 23.7557 232.128 24.2655C230.533 24.7698 228.874 25.0327 227.203 25.0454H226.063C223.914 25.0432 221.784 24.6391 219.782 23.8538C218.535 23.3587 217.368 22.6796 216.32 21.8389C215.387 20.9525 214.564 19.9559 213.868 18.8708C213.459 18.2858 213.115 17.6575 212.707 17.0942C211.688 15.2676 210.389 13.6149 208.857 12.1977C208.706 12.0894 208.577 11.9594 208.427 11.8727C206.308 10.4673 203.798 9.78391 201.265 9.92288C199.715 9.91137 198.179 10.2134 196.748 10.8111H196.619C195.188 11.4426 193.861 12.2901 192.683 13.3244C191.5 14.256 190.382 15.3826 189.156 16.5525C187.072 18.5673 184.86 20.4417 182.532 22.1638C182.209 22.4021 181.822 22.6188 181.456 22.8355C178.309 24.6446 174.735 25.5653 171.111 25.5004C164.659 25.5004 160.573 21.4705 156.616 17.5274L155.669 16.5742C154.079 14.9538 152.327 13.5019 150.443 12.2411C147.949 10.6394 145.056 9.7829 142.098 9.7712C140.502 9.83706 138.921 10.099 137.388 10.5511C136.008 10.9814 134.743 11.7223 133.689 12.7177C133.258 13.1322 132.914 13.6296 132.678 14.1803C132.441 14.7311 132.317 15.3241 132.312 15.9241C132.308 16.5256 132.428 17.1213 132.665 17.6734C132.902 18.2254 133.251 18.7218 133.689 19.1307C134.738 20.1324 136.005 20.8741 137.388 21.2973C138.991 21.8293 140.669 22.0928 142.356 22.0772C144.043 22.0912 145.721 21.8278 147.324 21.2973C148.705 20.8691 149.971 20.128 151.024 19.1307C151.46 18.7196 151.809 18.2233 152.05 17.672C152.29 17.1208 152.416 16.5262 152.422 15.9241C152.42 15.6391 152.384 15.3554 152.314 15.0793C153.368 15.9459 154.465 16.9424 155.411 17.9607C155.12 18.9337 154.629 19.8342 153.97 20.604C152.637 22.1111 150.962 23.2707 149.088 23.9838C146.94 24.8137 144.656 25.2254 142.356 25.1971C140.449 25.2135 138.55 24.9434 136.721 24.3954C135.077 23.8971 133.538 23.0963 132.183 22.0338L131.925 24.6771H128.893V0.238312H132.269V9.79289C133.616 8.75331 135.139 7.96791 136.764 7.47466C138.504 6.99277 140.295 6.72363 142.098 6.67305C149.497 6.67305 154.572 10.5944 158.573 14.5592L159.089 15.0793C160.358 16.3359 161.562 17.5274 162.788 18.5457C167.09 22.0122 168.961 22.0121 171.133 22.0121C175.463 22.1136 179.672 20.5663 182.919 17.679C183.672 17.0724 186.209 14.6892 186.769 14.1692C187.328 13.6493 187.694 13.2376 188.167 12.8043C189.252 11.7244 190.401 10.7116 191.608 9.7712C194.425 7.58386 197.88 6.39564 201.437 6.39138C205.147 6.17632 208.8 7.39255 211.653 9.79289C212.614 10.6745 213.472 11.663 214.212 12.7394C214.793 13.541 215.352 14.386 215.868 15.2093C216.384 16.0326 216.535 16.2708 216.879 16.7691C217.985 18.7249 219.669 20.2849 221.697 21.2322L222.127 21.4056L223.008 21.6656C223.405 21.768 223.807 21.8476 224.213 21.9038L225.245 22.0121H225.761C225.947 22.0344 226.135 22.0344 226.321 22.0121H227.461C228.924 21.979 230.374 21.7234 231.762 21.2539C233.145 20.8308 234.412 20.089 235.461 19.0874C235.898 18.6762 236.247 18.18 236.487 17.6288C236.728 17.0776 236.854 16.4829 236.859 15.8809C236.849 15.2797 236.72 14.6864 236.48 14.1359C236.24 13.5854 235.894 13.0885 235.461 12.6743C234.407 11.6789 233.142 10.9381 231.762 10.5078C230.159 9.97723 228.481 9.71381 226.794 9.72783C225.107 9.71381 223.429 9.97723 221.826 10.5078C220.445 10.9381 219.181 11.6789 218.126 12.6743C217.54 13.2747 217.123 14.023 216.922 14.8409C216.922 14.8409 216.922 14.6893 216.772 14.6243C216.169 13.6926 215.567 12.7177 214.836 11.7427C214.836 11.591 215.051 11.4827 215.158 11.3311C216.492 9.81929 218.166 8.65264 220.04 7.92955C222.189 7.07635 224.484 6.65674 226.794 6.6946C229.096 6.6607 231.383 7.08022 233.526 7.92955C235.4 8.65264 237.075 9.81929 238.408 11.3311C239.412 12.5681 239.972 14.11 239.999 15.7075Z" fill="black"/>
</g>
<defs>
<clipPath id="clip0_5457_1287">
<rect width="240" height="32" fill="white"/>
</clipPath>
</defs>
</svg>
